# xmcd
#
# Track frame offsets: 
#        150
#        16305
#        26675
#        44925
#        63147
#        82752
#        101395
#        117087
#        130200
#        143540
#        162092
#        176332
#        191192
#        205075
#        221542
#        238055
#
# Disc length: 3410 seconds
#
# Revision: 2
# Processed by: cddbd v1.5.2PL0 Copyright (c) Steve Scherf et al.
# Submitted via: ExactAudioCopyFreeDBPlugin 1.0
#
DISCID=d30d5010
DTITLE=Monster Hits - MH1046
DYEAR=1900
DGENRE=Karaoke
TTITLE0=Garth Brooks - American Honky Tonk Bar Association
TTITLE1=Clay Walker - If I Could Make A Living
TTITLE2=John Anderson - Seminole Wind
TTITLE3=Collin Raye - Little Rock
TTITLE4=Alan Jackson - Gone Country
TTITLE5=John Barry - Your Love Amazes Me
TTITLE6=Sammy Kershaw - Queen Of My Double Wide Trailer
TTITLE7=Toby Keith - Little Less Talk And A Lot More
TTITLE8=Tracy Byrd - Lifestyles Of The Not So Rich And F
TTITLE9=Garth Brooks - Learning To Live Again
TTITLE10=George Strait - Easy Come Easy Go
TTITLE11=Sawyer Brown - Some Girls Do
TTITLE12=Clint Black - Half The Man
TTITLE13=George Strait - I Cross My Heart
TTITLE14=Alan Jackson - Here In The Real World
TTITLE15=Dwight Yoakam - Thousand Miles From Nowhere
EXTD=
EXTT0=
EXTT1=
EXTT2=
EXTT3=
EXTT4=
EXTT5=
EXTT6=
EXTT7=
EXTT8=
EXTT9=
EXTT10=
EXTT11=
EXTT12=
EXTT13=
EXTT14=
EXTT15=
PLAYORDER=
